<svg width="399" height="505" viewBox="0 0 399 505" fill="none" xmlns="http://www.w3.org/2000/svg">
<path fill-rule="evenodd" clip-rule="evenodd" d="M151.82 172.945C148.766 169.553 169.383 157.329 171.487 157.759C173.081 158.085 174.357 158.565 175.369 159.165C175.797 159.328 176.236 159.538 176.684 159.797L199.762 173.121C199.762 173.121 199.763 173.121 199.763 173.121C199.763 184.104 207.473 197.458 216.983 202.949C226.494 208.44 234.204 203.989 234.204 193.006C234.204 193.006 234.205 193.006 234.205 193.006L257.287 206.333C261.591 208.818 265.081 214.862 265.081 219.833V245.97L265.175 246.279C265.144 246.284 265.112 246.289 265.081 246.294V246.483L265.081 246.483C265.081 246.483 265.081 246.483 265.08 246.483C264.995 246.434 264.909 246.385 264.824 246.337C255.487 247.926 250.338 251.674 247.932 254.632C247.884 255.209 247.86 255.807 247.86 256.426C247.86 267.408 255.57 280.762 265.08 286.253L265.081 286.253L265.081 286.254V312.904C265.081 315.19 264.343 316.85 263.128 317.736C263.324 318.296 263.485 318.78 263.608 319.169C258.125 322.867 246.623 330.225 244.481 330.072C241.804 329.88 239.508 314.769 239.126 309.605C239.07 308.85 239.349 308.086 239.879 307.354L234.208 304.08C234.207 315.061 226.498 319.512 216.987 314.021C207.476 308.531 199.767 295.177 199.766 284.195L176.684 270.869C172.379 268.383 168.89 262.339 168.89 257.369L168.89 230.716C159.38 225.225 151.671 211.871 151.671 200.89C151.671 189.909 159.38 185.457 168.89 190.946V184.757C164.705 185.917 160.08 185.639 158.289 182.434C156.799 179.768 155.338 177.979 154.165 176.542C153.049 175.174 152.193 174.126 151.82 172.945Z" fill="#0075FF"/>
<path fill-rule="evenodd" clip-rule="evenodd" d="M215.667 203.968C215.667 214.95 207.957 219.402 198.446 213.911C188.936 208.42 181.226 195.065 181.226 184.083C181.226 184.083 181.225 184.083 181.225 184.083L158.147 170.758C153.842 168.273 150.353 170.288 150.353 175.258L150.353 201.91C140.842 196.419 133.133 200.871 133.133 211.852C133.133 222.834 140.842 236.188 150.353 241.679L150.353 268.33C150.353 273.301 153.842 279.345 158.147 281.83L181.228 295.156L181.228 295.156C181.228 306.139 188.938 319.493 198.449 324.984C207.96 330.475 215.67 326.024 215.67 315.041L215.67 315.041L238.75 328.366C243.054 330.852 246.544 328.837 246.544 323.866L246.544 297.217C246.544 297.217 246.544 297.216 246.544 297.216C246.543 297.216 246.543 297.215 246.543 297.215C237.032 291.724 229.322 278.37 229.322 267.388C229.322 256.406 237.032 251.954 246.543 257.445C246.543 257.446 246.544 257.445 246.544 257.445L246.544 230.794C246.544 225.824 243.054 219.78 238.75 217.294L215.668 203.968C215.668 203.968 215.667 203.968 215.667 203.968Z" fill="#0075FF"/>
<path fill-rule="evenodd" clip-rule="evenodd" d="M215.667 203.968C215.667 214.95 207.957 219.402 198.446 213.911C188.936 208.42 181.226 195.065 181.226 184.083L158.147 170.758C153.842 168.273 150.353 170.288 150.353 175.258L150.353 201.91C140.842 196.419 133.133 200.871 133.133 211.852C133.133 222.834 140.842 236.188 150.353 241.679L150.353 268.33C150.353 273.301 153.842 279.345 158.147 281.83L181.228 295.156C181.228 306.138 188.938 319.493 198.449 324.984C207.96 330.475 215.67 326.024 215.67 315.041L238.75 328.366C243.054 330.852 246.544 328.837 246.544 323.866L246.544 297.217L246.544 297.216C237.033 291.725 229.322 278.37 229.322 267.388C229.322 256.406 237.032 251.954 246.543 257.445L246.544 257.445L246.544 230.794C246.544 225.824 243.054 219.78 238.75 217.294L215.667 203.968Z" fill="#0075FF"/>
<path fill-rule="evenodd" clip-rule="evenodd" d="M151.219 203.41L150.353 202.91C141.321 197.695 133.999 201.923 133.999 212.353C133.999 222.782 141.321 235.464 150.353 240.68L151.219 241.18L151.219 268.83C151.219 273.249 154.321 278.621 158.147 280.83L182.094 294.656L182.094 295.656C182.094 306.086 189.416 318.769 198.449 323.984C207.481 329.199 214.804 324.971 214.804 314.541L214.804 313.541L238.75 327.366C242.576 329.576 245.678 327.785 245.678 323.366L245.678 297.693C236.09 291.636 228.456 278.088 228.456 266.888C228.456 255.688 236.09 250.955 245.678 255.97L245.678 230.295C245.678 225.876 242.576 220.504 238.75 218.295L216.513 205.456C216.061 216.266 208.145 220.51 198.446 214.911C188.748 209.311 180.832 195.926 180.38 184.595L158.147 171.759C154.321 169.549 151.219 171.34 151.219 175.759L151.219 203.41ZM181.228 295.156C181.228 306.138 188.938 319.493 198.449 324.984C207.96 330.475 215.67 326.024 215.67 315.041L238.75 328.366C243.054 330.852 246.544 328.837 246.544 323.866L246.544 297.217C246.544 297.217 246.544 297.216 246.544 297.216C246.543 297.216 246.544 297.216 246.544 297.216C237.033 291.725 229.322 278.37 229.322 267.388C229.322 256.406 237.032 251.954 246.543 257.445C246.543 257.446 246.544 257.446 246.544 257.445L246.544 230.795C246.544 225.824 243.054 219.78 238.75 217.295L215.668 203.968C215.668 203.968 215.668 203.968 215.668 203.968C215.668 214.95 207.957 219.402 198.446 213.911C188.936 208.42 181.226 195.066 181.226 184.083C181.226 184.083 181.226 184.083 181.226 184.083L158.147 170.759C153.842 168.273 150.353 170.288 150.353 175.259L150.353 201.91C140.842 196.419 133.133 200.871 133.133 211.853C133.133 222.834 140.842 236.188 150.353 241.68L150.353 268.33C150.353 273.301 153.842 279.345 158.147 281.83L181.228 295.156Z" fill="black"/>
<path d="M194.969 169.523L176.914 181.989C178.266 182.665 180.723 185.574 181.264 190.036C181.804 194.497 186.345 201.48 188.542 204.804L207.32 193.256C204.886 191.634 203.237 185.98 202.231 183.591C202.231 171.143 197.223 171.326 194.969 169.523Z" fill="black"/>
<path d="M255.892 205.434L236.934 217.01C246.295 221.003 246.295 229.64 246.295 235.386L265.191 223.598C267.254 209.567 258.908 207.086 255.892 205.434Z" fill="black"/>
<path d="M236.856 254.846C242.903 254.015 245.292 257.082 247.844 258.345C247.539 259.255 249.588 265.598 250.65 268.656L231.319 278.056C230.652 276.661 229.612 271.629 229.208 269.077C228.374 261.572 231.052 255.642 236.856 254.846Z" fill="black"/>
<path d="M209.473 196.713L191.496 208.319C191.496 209.191 199.578 215.319 199.578 214.883C199.578 214.446 217.623 202.414 216.925 202.414C216.366 202.414 210.578 197.876 209.473 196.713Z" fill="black"/>
<path fill-rule="evenodd" clip-rule="evenodd" d="M284.562 235.574C286 233.831 302.236 221.952 304.379 222.105C305.517 222.186 308.425 223.479 309.576 224.143L332.654 237.467C332.654 248.45 340.365 261.804 349.876 267.296C359.386 272.787 367.096 268.335 367.096 257.353L390.179 270.679C394.484 273.164 397.973 279.209 397.973 284.179V310.318L398.067 310.624C398.035 310.629 398.004 310.634 397.973 310.639V310.828L397.972 310.829C397.886 310.779 397.801 310.73 397.715 310.683C388.38 312.271 383.23 316.018 380.824 318.976C380.776 319.553 380.751 320.152 380.751 320.771C380.751 331.753 388.461 345.108 397.972 350.599L397.973 350.6V377.251C398.963 390.231 383.486 394.229 375.888 393.685C373.211 393.493 372.4 379.115 372.017 373.95C371.961 373.195 372.24 372.432 372.769 371.7L367.099 368.426C367.098 379.406 359.389 383.857 349.879 378.366C340.369 372.875 332.659 359.523 332.658 348.541L309.576 335.215C305.272 332.73 301.782 326.686 301.782 321.715V295.061C292.272 289.57 284.562 276.216 284.562 265.235C284.562 254.253 292.272 249.801 301.782 255.291V249.103C297.597 250.263 292.972 249.985 291.18 246.78C288.273 241.577 285.327 237.997 284.562 235.574Z" fill="white"/>
<path fill-rule="evenodd" clip-rule="evenodd" d="M348.563 268.318C348.563 279.3 340.852 283.752 331.342 278.261C321.831 272.77 314.121 259.415 314.121 248.433C314.121 248.433 314.121 248.433 314.12 248.433L291.042 235.108C286.738 232.623 283.248 234.638 283.248 239.608L283.248 266.258C273.737 260.767 266.027 265.218 266.027 276.2C266.027 287.182 273.737 300.536 283.248 306.028L283.248 332.68C283.248 337.651 286.738 343.695 291.042 346.18L314.123 359.506C314.123 370.488 321.833 383.841 331.343 389.332C340.854 394.822 348.564 390.372 348.564 379.391L371.645 392.716C375.95 395.202 379.439 393.187 379.439 388.216L379.439 361.567C379.439 361.566 379.438 361.565 379.438 361.564C369.927 356.073 362.217 342.719 362.217 331.737C362.217 320.755 369.927 316.303 379.438 321.794C379.438 321.795 379.439 321.794 379.439 321.793L379.439 295.144C379.439 290.174 375.95 284.13 371.645 281.644L348.563 268.318C348.563 268.318 348.563 268.318 348.563 268.318Z" fill="white"/>
<path fill-rule="evenodd" clip-rule="evenodd" d="M284.114 267.758L283.248 267.258C274.216 262.043 266.893 266.27 266.893 276.7C266.893 287.13 274.216 299.813 283.248 305.028L284.114 305.528L284.114 333.18C284.114 337.599 287.216 342.971 291.042 345.18L314.988 359.006L314.989 360.006C314.989 370.435 322.311 383.117 331.343 388.332C340.376 393.546 347.698 389.319 347.698 378.891L347.698 377.891L371.645 391.716C375.471 393.925 378.573 392.135 378.573 387.716L378.573 362.042C368.985 355.985 361.351 342.437 361.351 331.237C361.351 320.037 368.985 315.304 378.573 320.319L378.573 294.644C378.573 290.226 375.471 284.854 371.645 282.644L349.408 269.806C348.956 280.616 341.041 284.86 331.342 279.261C321.643 273.661 313.727 260.276 313.275 248.945L291.042 236.108C287.216 233.899 284.114 235.69 284.114 240.108L284.114 267.758ZM331.342 278.261C340.852 283.752 348.563 279.3 348.563 268.318V268.318L371.645 281.644C375.95 284.13 379.439 290.174 379.439 295.144L379.439 321.793L379.438 321.794C369.927 316.303 362.217 320.755 362.217 331.737C362.217 342.719 369.927 356.073 379.438 361.564L379.439 361.567L379.439 388.216C379.439 393.187 375.95 395.202 371.645 392.716L348.564 379.391C348.564 390.372 340.854 394.822 331.343 389.332C321.833 383.841 314.123 370.488 314.123 359.506L291.042 346.18C286.738 343.695 283.248 337.651 283.248 332.68L283.248 306.028C273.737 300.536 266.027 287.182 266.027 276.2C266.027 265.218 273.737 260.767 283.248 266.258L283.248 239.608C283.248 234.638 286.738 232.623 291.042 235.108L314.12 248.433V248.433C314.12 259.415 321.831 272.77 331.342 278.261Z" fill="black"/>
<path d="M327.864 233.871L309.809 246.336C311.161 247.012 313.617 249.922 314.158 254.383C314.699 258.845 319.24 265.828 321.437 269.152L340.214 257.604C337.781 255.982 336.131 250.328 335.125 247.939C335.125 236.544 330.117 235.674 327.864 233.871Z" fill="black"/>
<path d="M388.783 269.779L369.824 281.356C379.582 285.721 379.185 293.986 379.185 299.732L398.082 287.943C400.145 273.913 391.799 271.431 388.783 269.779Z" fill="black"/>
<path d="M369.751 319.193C375.798 318.362 379.302 321.732 380.853 322.686C381 323.614 382.482 329.945 383.545 333.003L364.214 342.403C363.546 341.008 362.507 335.976 362.102 333.424C361.268 325.919 363.947 319.99 369.751 319.193Z" fill="black"/>
<path d="M342.368 261.061L324.391 272.667C324.391 273.539 332.472 279.667 332.472 279.23C332.472 278.794 350.517 266.762 349.819 266.762C349.261 266.762 343.473 262.224 342.368 261.061Z" fill="black"/>
<path fill-rule="evenodd" clip-rule="evenodd" d="M18.5625 113.574C19.9996 111.831 36.2364 99.9517 38.3786 100.105C39.5168 100.186 42.4252 101.479 43.5762 102.143L66.6543 115.467C66.6543 126.45 74.3648 139.804 83.8756 145.296C93.3864 150.787 101.096 146.335 101.096 135.353L124.179 148.679C128.484 151.164 131.973 157.209 131.973 162.179V188.318L132.067 188.624C132.035 188.629 132.004 188.634 131.973 188.639V188.828L131.972 188.829C131.886 188.779 131.801 188.73 131.715 188.683C122.38 190.271 117.23 194.018 114.824 196.976C114.776 197.553 114.751 198.152 114.751 198.771C114.751 209.753 122.461 223.108 131.972 228.599L131.973 228.6V255.251C132.963 268.231 117.486 272.229 109.888 271.685C107.211 271.493 106.4 257.115 106.017 251.95C105.961 251.195 106.24 250.432 106.769 249.7L101.099 246.426C101.098 257.406 93.3886 261.857 83.8786 256.366C74.3685 250.875 66.659 237.523 66.6577 226.541L43.5762 213.215C39.2716 210.73 35.782 204.686 35.782 199.715V173.061C26.2718 167.57 18.5625 154.216 18.5625 143.235C18.5625 132.253 26.2718 127.801 35.782 133.291V127.103C31.597 128.263 26.9716 127.985 25.1805 124.78C22.2731 119.577 19.3272 115.997 18.5625 113.574Z" fill="white"/>
<path fill-rule="evenodd" clip-rule="evenodd" d="M82.5625 146.318C82.5625 157.3 74.8525 161.752 65.3416 156.261C55.8308 150.77 48.1207 137.415 48.1207 126.433C48.1207 126.433 48.1206 126.433 48.1203 126.433L25.0422 113.108C20.7376 110.623 17.248 112.638 17.248 117.608L17.248 144.258C7.73727 138.767 0.0273428 143.218 0.0273425 154.2C0.0273423 165.182 7.73727 178.536 17.248 184.028L17.248 210.68C17.248 215.651 20.7376 221.695 25.0422 224.18L48.1225 237.506C48.1232 248.488 55.833 261.841 65.3434 267.332C74.8538 272.822 82.5636 268.372 82.5643 257.391L105.645 270.716C109.95 273.202 113.439 271.187 113.439 266.216L113.439 239.567C113.439 239.566 113.438 239.565 113.438 239.564C103.927 234.073 96.2168 220.719 96.2168 209.737C96.2168 198.755 103.927 194.303 113.438 199.794C113.438 199.795 113.439 199.794 113.439 199.793L113.439 173.144C113.439 168.174 109.95 162.13 105.645 159.644L82.5629 146.318C82.5627 146.318 82.5625 146.318 82.5625 146.318Z" fill="white"/>
<path fill-rule="evenodd" clip-rule="evenodd" d="M18.114 145.758L17.248 145.258C8.21557 140.043 0.893368 144.27 0.893368 154.7C0.893368 165.13 8.21557 177.813 17.248 183.028L18.114 183.528L18.114 211.18C18.114 215.599 21.2159 220.971 25.0422 223.18L48.9885 237.006L48.9885 238.006C48.9892 248.435 56.3113 261.117 65.3434 266.332C74.3755 271.546 81.6976 267.319 81.6983 256.891L81.6983 255.891L105.645 269.716C109.471 271.925 112.573 270.135 112.573 265.716L112.573 240.042C102.985 233.985 95.3508 220.437 95.3508 209.237C95.3508 198.037 102.985 193.304 112.573 198.319L112.573 172.644C112.573 168.226 109.471 162.854 105.645 160.644L83.4082 147.806C82.9564 158.616 75.0406 162.86 65.3416 157.261C55.6427 151.661 47.7268 138.276 47.2751 126.945L25.0422 114.108C21.2159 111.899 18.114 113.69 18.114 118.108L18.114 145.758ZM65.3416 156.261C74.8525 161.752 82.5625 157.3 82.5625 146.318V146.318L105.645 159.644C109.95 162.13 113.439 168.174 113.439 173.144L113.439 199.793L113.438 199.794C103.927 194.303 96.2168 198.755 96.2168 209.737C96.2168 220.719 103.927 234.073 113.438 239.564L113.439 239.567L113.439 266.216C113.439 271.187 109.95 273.202 105.645 270.716L82.5643 257.391C82.5636 268.372 74.8538 272.822 65.3434 267.332C55.833 261.841 48.1232 248.488 48.1225 237.506L25.0422 224.18C20.7376 221.695 17.248 215.651 17.248 210.68L17.248 184.028C7.73727 178.536 0.0273423 165.182 0.0273425 154.2C0.0273428 143.218 7.73727 138.767 17.248 144.258L17.248 117.608C17.248 112.638 20.7376 110.623 25.0422 113.108L48.1203 126.433V126.433C48.1203 137.415 55.8308 150.77 65.3416 156.261Z" fill="black"/>
<path d="M61.8639 111.871L43.8086 124.336C45.1609 125.012 47.6174 127.922 48.1582 132.383C48.699 136.845 53.2397 143.828 55.4366 147.152L74.2141 135.604C71.7807 133.982 70.1312 128.328 69.1252 125.939C69.1252 114.544 64.1173 113.674 61.8639 111.871Z" fill="black"/>
<path d="M122.783 147.779L103.824 159.356C113.582 163.721 113.185 171.986 113.185 177.732L132.082 165.943C134.145 151.913 125.799 149.431 122.783 147.779Z" fill="black"/>
<path d="M103.751 197.193C109.798 196.362 113.302 199.732 114.853 200.686C115 201.614 116.482 207.945 117.545 211.003L98.2136 220.403C97.5465 219.008 96.5068 213.976 96.1023 211.424C95.2684 203.919 97.947 197.99 103.751 197.193Z" fill="black"/>
<path d="M76.3677 139.061L58.3906 150.667C58.3906 151.539 66.4722 157.667 66.4722 157.23C66.4722 156.794 84.5175 144.762 83.8193 144.762C83.2608 144.762 77.4728 140.224 76.3677 139.061Z" fill="black"/>
<path fill-rule="evenodd" clip-rule="evenodd" d="M170.562 15.5741C172 13.831 188.236 1.95166 190.379 2.10499C191.517 2.18646 194.425 3.47871 195.576 4.14323L218.654 17.4674C218.654 28.4495 226.365 41.8044 235.876 47.2955C245.386 52.7866 253.096 48.3352 253.096 37.353L276.179 50.6792C280.484 53.1645 283.973 59.2087 283.973 64.1792V90.3178L284.067 90.6241C284.035 90.6292 284.004 90.6342 283.973 90.6394V90.8283L283.972 90.8288C283.886 90.7792 283.801 90.7305 283.715 90.6825C274.38 92.2708 269.23 96.0183 266.824 98.9763C266.776 99.5535 266.751 100.152 266.751 100.771C266.751 111.753 274.461 125.108 283.972 130.599L283.973 130.6V157.251C284.963 170.231 269.486 174.229 261.888 173.685C259.211 173.493 258.4 159.115 258.017 153.95C257.961 153.195 258.24 152.432 258.769 151.7L253.099 148.426C253.098 159.406 245.389 163.857 235.879 158.366C226.369 152.875 218.659 139.523 218.658 128.541L195.576 115.215C191.272 112.73 187.782 106.686 187.782 101.715V75.0611C178.272 69.5696 170.562 56.2161 170.562 45.2345C170.562 34.2529 178.272 29.8014 187.782 35.2912V29.1027C183.597 30.2633 178.972 29.9852 177.18 26.78C174.273 21.5773 171.327 17.9969 170.562 15.5741Z" fill="white"/>
<path fill-rule="evenodd" clip-rule="evenodd" d="M234.563 48.3182C234.563 59.3003 226.852 63.7517 217.342 58.2607C207.831 52.7696 200.121 39.4154 200.121 28.4332C200.121 28.433 200.121 28.4326 200.12 28.4325L177.042 15.1084C172.738 12.6231 169.248 14.6378 169.248 19.6084L169.248 46.2576C159.737 40.7667 152.027 45.2181 152.027 56.2002C152.027 67.1823 159.737 80.5364 169.248 86.0275L169.248 112.68C169.248 117.651 172.738 123.695 177.042 126.18L200.123 139.506C200.123 150.488 207.833 163.841 217.343 169.332C226.854 174.822 234.564 170.372 234.564 159.391L257.645 172.716C261.95 175.202 265.439 173.187 265.439 168.216L265.439 141.567C265.439 141.566 265.438 141.565 265.438 141.564C255.927 136.073 248.217 122.719 248.217 111.737C248.217 100.755 255.927 96.3031 265.438 101.794C265.438 101.795 265.439 101.794 265.439 101.793L265.439 75.1443C265.439 70.1738 261.95 64.1296 257.645 61.6443L234.563 48.3179C234.563 48.3178 234.563 48.3179 234.563 48.3182Z" fill="white"/>
<path fill-rule="evenodd" clip-rule="evenodd" d="M170.114 47.7577L169.248 47.2577C160.216 42.0429 152.893 46.2705 152.893 56.7003C152.893 67.1301 160.216 79.8126 169.248 85.0276L170.114 85.5276L170.114 113.18C170.114 117.599 173.216 122.971 177.042 125.18L200.988 139.006L200.989 140.006C200.989 150.435 208.311 163.117 217.343 168.332C226.376 173.546 233.698 169.319 233.698 158.891L233.698 157.891L257.645 171.716C261.471 173.925 264.573 172.135 264.573 167.716L264.573 142.042C254.985 135.985 247.351 122.437 247.351 111.237C247.351 100.037 254.985 95.3041 264.573 100.319L264.573 74.6444C264.573 70.2262 261.471 64.8536 257.645 62.6444L235.408 49.8061C234.956 60.6156 227.041 64.8604 217.342 59.2608C207.643 53.6611 199.727 40.2757 199.275 28.9446L177.042 16.1085C173.216 13.8993 170.114 15.6902 170.114 20.1085L170.114 47.7577ZM217.342 58.2608C226.852 63.7518 234.563 59.3004 234.563 48.3183V48.3183L257.645 61.6444C261.95 64.1297 265.439 70.1739 265.439 75.1444L265.439 101.793L265.438 101.794C255.927 96.3032 248.217 100.755 248.217 111.737C248.217 122.719 255.927 136.073 265.438 141.564L265.439 141.567L265.439 168.216C265.439 173.187 261.95 175.202 257.645 172.716L234.564 159.391C234.564 170.372 226.854 174.822 217.343 169.332C207.833 163.841 200.123 150.488 200.123 139.506L177.042 126.18C172.738 123.695 169.248 117.651 169.248 112.68L169.248 86.0276C159.737 80.5364 152.027 67.1823 152.027 56.2003C152.027 45.2182 159.737 40.7668 169.248 46.2577L169.248 19.6085C169.248 14.6379 172.738 12.6232 177.042 15.1085L200.12 28.4326V28.4326C200.12 39.4148 207.831 52.7697 217.342 58.2608Z" fill="black"/>
<path d="M213.864 13.8711L195.809 26.3365C197.161 27.0123 199.617 29.9221 200.158 34.3834C200.699 38.8448 205.24 45.8281 207.437 49.1515L226.214 37.6038C223.781 35.9815 222.131 30.328 221.125 27.939C221.125 16.5435 216.117 15.6738 213.864 13.8711Z" fill="black"/>
<path d="M274.783 49.7793L255.824 61.3562C265.582 65.7209 265.185 73.9861 265.185 79.7321L284.082 67.9434C286.145 53.9128 277.799 51.4313 274.783 49.7793Z" fill="black"/>
<path d="M255.751 99.1926C261.798 98.3624 265.302 101.732 266.853 102.686C267 103.614 268.482 109.945 269.545 113.003L250.214 122.403C249.546 121.008 248.507 115.976 248.102 113.424C247.268 105.919 249.947 99.9895 255.751 99.1926Z" fill="black"/>
<path d="M228.368 41.0605L210.391 52.6666C210.391 53.5388 218.472 59.6667 218.472 59.2304C218.472 58.7941 236.517 46.7621 235.819 46.7621C235.261 46.7621 229.473 42.2241 228.368 41.0605Z" fill="black"/>
<path fill-rule="evenodd" clip-rule="evenodd" d="M129.562 322.574C131 320.831 147.236 308.952 149.379 309.105C150.517 309.186 153.425 310.479 154.576 311.143L177.654 324.467C177.654 335.45 185.365 348.804 194.876 354.296C204.386 359.787 212.096 355.335 212.096 344.353L235.179 357.679C239.484 360.164 242.973 366.209 242.973 371.179V397.318L243.067 397.624C243.035 397.629 243.004 397.634 242.973 397.639V397.828L242.972 397.829C242.886 397.779 242.801 397.73 242.715 397.683C233.38 399.271 228.23 403.018 225.824 405.976C225.776 406.553 225.751 407.152 225.751 407.771C225.751 418.753 233.461 432.108 242.972 437.599L242.973 437.6V464.251C243.963 477.231 228.486 481.229 220.888 480.685C218.211 480.493 217.4 466.115 217.017 460.95C216.961 460.195 217.24 459.432 217.769 458.7L212.099 455.426C212.098 466.406 204.389 470.857 194.879 465.366C185.369 459.875 177.659 446.523 177.658 435.541L154.576 422.215C150.272 419.73 146.782 413.686 146.782 408.715V382.061C137.272 376.57 129.562 363.216 129.562 352.235C129.562 341.253 137.272 336.801 146.782 342.291V336.103C142.597 337.263 137.972 336.985 136.18 333.78C133.273 328.577 130.327 324.997 129.562 322.574Z" fill="white"/>
<path fill-rule="evenodd" clip-rule="evenodd" d="M193.563 355.318C193.563 366.3 185.852 370.752 176.342 365.261C166.831 359.77 159.121 346.415 159.121 335.433C159.121 335.433 159.121 335.433 159.12 335.433L136.042 322.108C131.738 319.623 128.248 321.638 128.248 326.608L128.248 353.258C118.737 347.767 111.027 352.218 111.027 363.2C111.027 374.182 118.737 387.536 128.248 393.028L128.248 419.68C128.248 424.651 131.738 430.695 136.042 433.18L159.123 446.506C159.123 457.488 166.833 470.841 176.343 476.332C185.854 481.822 193.564 477.372 193.564 466.391L216.645 479.716C220.95 482.202 224.439 480.187 224.439 475.216L224.439 448.567C224.439 448.566 224.438 448.565 224.438 448.564C214.927 443.073 207.217 429.719 207.217 418.737C207.217 407.755 214.927 403.303 224.438 408.794C224.438 408.795 224.439 408.794 224.439 408.793L224.439 382.144C224.439 377.174 220.95 371.13 216.645 368.644L193.563 355.318C193.563 355.318 193.563 355.318 193.563 355.318Z" fill="white"/>
<path fill-rule="evenodd" clip-rule="evenodd" d="M129.114 354.758L128.248 354.258C119.216 349.043 111.893 353.27 111.893 363.7C111.893 374.13 119.216 386.813 128.248 392.028L129.114 392.528L129.114 420.18C129.114 424.599 132.216 429.971 136.042 432.18L159.988 446.006L159.989 447.006C159.989 457.435 167.311 470.117 176.343 475.332C185.376 480.546 192.698 476.319 192.698 465.891L192.698 464.891L216.645 478.716C220.471 480.925 223.573 479.135 223.573 474.716L223.573 449.042C213.985 442.985 206.351 429.437 206.351 418.237C206.351 407.037 213.985 402.304 223.573 407.319L223.573 381.644C223.573 377.226 220.471 371.854 216.645 369.644L194.408 356.806C193.956 367.616 186.041 371.86 176.342 366.261C166.643 360.661 158.727 347.276 158.275 335.945L136.042 323.108C132.216 320.899 129.114 322.69 129.114 327.108L129.114 354.758ZM176.342 365.261C185.852 370.752 193.563 366.3 193.563 355.318V355.318L216.645 368.644C220.95 371.13 224.439 377.174 224.439 382.144L224.439 408.793L224.438 408.794C214.927 403.303 207.217 407.755 207.217 418.737C207.217 429.719 214.927 443.073 224.438 448.564L224.439 448.567L224.439 475.216C224.439 480.187 220.95 482.202 216.645 479.716L193.564 466.391C193.564 477.372 185.854 481.822 176.343 476.332C166.833 470.841 159.123 457.488 159.123 446.506L136.042 433.18C131.738 430.695 128.248 424.651 128.248 419.68L128.248 393.028C118.737 387.536 111.027 374.182 111.027 363.2C111.027 352.218 118.737 347.767 128.248 353.258L128.248 326.608C128.248 321.638 131.738 319.623 136.042 322.108L159.12 335.433V335.433C159.12 346.415 166.831 359.77 176.342 365.261Z" fill="black"/>
<path d="M172.864 320.871L154.809 333.336C156.161 334.012 158.617 336.922 159.158 341.383C159.699 345.845 164.24 352.828 166.437 356.152L185.214 344.604C182.781 342.982 181.131 337.328 180.125 334.939C180.125 323.544 175.117 322.674 172.864 320.871Z" fill="black"/>
<path d="M233.783 356.779L214.824 368.356C224.582 372.721 224.185 380.986 224.185 386.732L243.082 374.943C245.145 360.913 236.799 358.431 233.783 356.779Z" fill="black"/>
<path d="M214.751 406.193C220.798 405.362 224.302 408.732 225.853 409.686C226 410.614 227.482 416.945 228.545 420.003L209.214 429.403C208.546 428.008 207.507 422.976 207.102 420.424C206.268 412.919 208.947 406.99 214.751 406.193Z" fill="black"/>
<path d="M187.368 348.061L169.391 359.667C169.391 360.539 177.472 366.667 177.472 366.23C177.472 365.794 195.517 353.762 194.819 353.762C194.261 353.762 188.473 349.224 187.368 348.061Z" fill="black"/>
<mask id="mask0_225_109" style="mask-type:alpha" maskUnits="userSpaceOnUse" x="133" y="162" width="114" height="170">
<path fill-rule="evenodd" clip-rule="evenodd" d="M151.266 162.346L180.434 184.866C180.846 195.664 188.392 209.181 197.639 214.52C209.053 220.761 216.098 215.781 216.509 205.458L238.376 218.161C242.997 220.846 245.841 225.787 245.841 231.132L245.841 257.057C236.656 252.178 229.321 256.677 229.321 267.388C229.321 278.242 236.853 291.414 246.211 297.021L245.841 331.431L215.65 314.061C215.663 314.389 215.67 314.716 215.67 315.041C215.67 326.023 207.96 330.474 198.449 324.983C188.938 319.492 181.228 306.138 181.228 295.156C181.228 294.855 181.234 294.559 181.245 294.268L159.789 281.923C154.516 278.89 151.266 273.271 151.266 267.188L151.266 242.179C150.964 242.022 150.66 241.856 150.354 241.679C140.843 236.188 133.133 222.834 133.133 211.852C133.133 200.87 140.843 196.418 150.354 201.909C150.66 202.086 150.964 202.271 151.266 202.464L151.266 162.346Z" fill="#0075FF"/>
</mask>
<g mask="url(#mask0_225_109)">
<path d="M227.051 185.137L128.367 279.875L136.261 293.692L248.27 197.966L227.051 185.137Z" fill="white"/>
<path d="M227.051 185.137L128.367 279.875L136.261 293.692L248.27 197.966L227.051 185.137Z" fill="white"/>
<path d="M253.254 206.529L154.57 301.268L158.398 306.822L262.697 214.516L253.254 206.529Z" fill="white"/>
</g>
<path d="M208.422 241.455C208.422 239.628 206.584 237.559 205.358 238.006L198.49 240.508C198.052 240.667 197.799 241.137 197.799 241.789L197.799 258.235C197.799 259.976 196.11 260.032 194.864 258.332L187.265 247.968C186.019 246.268 184.331 246.324 184.331 248.065L184.331 255.731C184.331 256.415 184.61 257.22 185.084 257.903L197.299 275.495C197.623 275.963 198.017 276.342 198.423 276.576L206.544 281.265C207.581 281.864 208.422 281.378 208.422 280.181L208.422 241.455Z" fill="black"/>
<path d="M171.258 258.562C171.258 260.39 173.096 262.458 174.322 262.012L181.19 259.51C181.627 259.351 181.881 258.88 181.881 258.229L181.881 241.783C181.881 240.041 183.569 239.985 184.816 241.685L192.414 252.05C193.661 253.75 195.349 253.694 195.349 251.952L195.349 244.286C195.349 243.603 195.07 242.798 194.596 242.115L182.381 224.522C182.056 224.055 181.662 223.676 181.257 223.442L173.135 218.753C172.098 218.154 171.258 218.639 171.258 219.837L171.258 258.562Z" fill="black"/>
<path d="M338.324 157.594C338.672 155.891 341.105 155.891 341.453 157.594L343.874 169.438C344.562 172.804 347.192 175.434 350.558 176.122L362.403 178.543C364.106 178.891 364.106 181.324 362.403 181.672L350.558 184.093C347.192 184.781 344.562 187.411 343.874 190.777L341.453 202.621C341.105 204.324 338.672 204.324 338.324 202.621L335.903 190.777C335.215 187.411 332.585 184.781 329.22 184.093L317.375 181.672C315.672 181.324 315.672 178.891 317.375 178.543L329.22 176.122C332.585 175.434 335.215 172.804 335.903 169.438L338.324 157.594Z" fill="#0075FF"/>
<path d="M107.666 81.943C107.801 81.2794 108.749 81.2794 108.885 81.943L109.828 86.5589C110.097 87.8705 111.121 88.8954 112.433 89.1635L117.049 90.1069C117.713 90.2426 117.713 91.1908 117.049 91.3264L112.433 92.2699C111.121 92.5379 110.097 93.5629 109.828 94.8744L108.885 99.4903C108.749 100.154 107.801 100.154 107.666 99.4903L106.722 94.8744C106.454 93.5629 105.429 92.5379 104.118 92.2699L99.5016 91.3264C98.838 91.1908 98.838 90.2426 99.5016 90.1069L104.118 89.1635C105.429 88.8954 106.454 87.8705 106.722 86.5589L107.666 81.943Z" fill="white"/>
<path d="M70.2783 303.027C70.4644 302.116 71.7658 302.116 71.9519 303.027L73.2468 309.362C73.6147 311.162 75.0214 312.569 76.8214 312.937L83.1565 314.231C84.0673 314.418 84.0673 315.719 83.1565 315.905L76.8214 317.2C75.0214 317.568 73.6147 318.975 73.2468 320.775L71.9519 327.11C71.7658 328.02 70.4644 328.02 70.2783 327.11L68.9834 320.775C68.6155 318.975 67.2088 317.568 65.4088 317.2L59.0737 315.905C58.1629 315.719 58.1629 314.418 59.0737 314.231L65.4088 312.937C67.2088 312.569 68.6155 311.162 68.9834 309.362L70.2783 303.027Z" fill="white"/>
</svg>
