<svg width="15" height="16" viewBox="0 0 15 16" fill="none" xmlns="http://www.w3.org/2000/svg">
<path d="M14.6953 1.68733C14.6953 1.08446 13.9952 0.752002 13.528 1.13299L10.9116 3.26649C10.745 3.40232 10.6484 3.60588 10.6484 3.82082V9.24649C10.6484 9.82103 10.0052 10.1611 9.53038 9.83763L6.63569 7.86565C6.16087 7.54218 5.51772 7.88225 5.51772 8.45679V10.9859C5.51772 11.2114 5.62412 11.4238 5.8048 11.5588L10.4579 15.0363C10.5816 15.1287 10.7318 15.1786 10.8861 15.1786H13.98C14.3751 15.1786 14.6953 14.8583 14.6953 14.4633V1.68733Z" fill="white"/>
<path d="M0.539062 14.4093C0.539062 15.0122 1.23913 15.3447 1.70636 14.9637L4.32276 12.8302C4.48935 12.6944 4.58601 12.4908 4.58601 12.2759V6.85019C4.58601 6.27565 5.22917 5.93558 5.70399 6.25905L8.59868 8.23103C9.07351 8.5545 9.71666 8.21443 9.71666 7.63989V5.11082C9.71666 4.88525 9.61026 4.6729 9.42957 4.53786L4.77645 1.06042C4.65282 0.968023 4.50261 0.918097 4.34827 0.918097H1.25433C0.859301 0.918097 0.539062 1.23834 0.539062 1.63337V14.4093Z" fill="white"/>
</svg>
