<svg width="4838" height="639" viewBox="0 0 4838 639" fill="none" xmlns="http://www.w3.org/2000/svg">
<path d="M4200.2 588.073C4182.54 588.073 4168.23 573.761 4168.23 556.107V514.82C4168.23 497.144 4182.58 482.824 4200.25 482.855L4633.86 483.609C4657.62 483.609 4675.7 478.21 4688.12 467.413C4701.08 456.076 4707.55 437.99 4707.55 413.157C4707.55 388.323 4701.08 370.507 4688.12 359.71C4675.7 348.373 4657.62 342.704 4633.86 342.704H4343.96C4284.03 342.704 4237.33 328.398 4203.86 299.785C4170.93 270.632 4154.46 227.983 4154.46 171.837C4154.46 115.691 4170.93 73.312 4203.86 44.6992C4237.33 15.5465 4284.03 0.970215 4343.96 0.970215H4767.1C4784.75 0.970215 4799.06 15.2817 4799.06 32.9359V74.2194C4799.06 91.8965 4784.71 106.217 4767.04 106.185L4357.72 105.434C4334.51 105.434 4316.42 110.833 4303.47 121.63C4290.51 131.887 4284.03 148.623 4284.03 171.837C4284.03 195.051 4290.51 212.057 4303.47 222.854C4316.42 233.112 4334.51 238.241 4357.72 238.241H4647.63C4707.55 238.241 4753.98 253.087 4786.91 282.779C4820.39 311.932 4837.12 355.391 4837.12 413.157C4837.12 470.382 4820.39 513.841 4786.91 543.534C4753.98 573.226 4707.55 588.073 4647.63 588.073H4200.2Z" fill="white"/>
<path d="M3599.09 588.126C3540.24 588.126 3493.81 580.568 3459.8 565.452C3425.79 549.795 3401.5 526.311 3386.92 494.999C3372.34 463.687 3365.06 424.277 3365.06 376.769V37.038C3365.06 19.3839 3379.37 5.07239 3397.02 5.07239H3462.66C3480.31 5.07239 3494.62 19.3839 3494.62 37.038V376.769C3494.62 417.799 3504.07 445.872 3522.97 460.988C3542.4 475.564 3575.06 482.852 3620.95 482.852H3777.24C3823.13 482.852 3855.52 475.564 3874.42 460.988C3893.85 445.872 3903.57 417.799 3903.57 376.769V37.038C3903.57 19.3839 3917.88 5.07239 3935.54 5.07239H4001.17C4018.83 5.07239 4033.14 19.3839 4033.14 37.038V376.769C4033.14 424.277 4025.85 463.687 4011.27 494.999C3996.7 526.311 3972.4 549.795 3938.39 565.452C3904.38 580.568 3857.95 588.126 3799.11 588.126H3599.09Z" fill="white"/>
<path d="M2585.61 584.077C2559.26 584.077 2544.22 553.991 2560.04 532.92L2724.28 314.144C2732.8 302.786 2732.81 287.165 2724.3 275.796L2559.91 56.1946C2544.13 35.1181 2559.17 5.07239 2585.5 5.07239H2663.36C2673.54 5.07239 2683.11 9.92038 2689.13 18.1271L2844.08 229.288C2850.1 237.495 2859.67 242.343 2869.85 242.343H2911.96C2922.14 242.343 2931.71 237.495 2937.74 229.288L3092.68 18.1271C3098.71 9.92037 3108.28 5.07239 3118.46 5.07239H3196.31C3222.64 5.07239 3237.68 35.118 3221.9 56.1945L3057.51 275.796C3049 287.165 3049.01 302.786 3057.53 314.144L3221.77 532.92C3237.59 553.991 3222.55 584.077 3196.21 584.077H3117.66C3107.47 584.077 3097.9 579.223 3091.87 571.007L2937.74 360.686C2931.71 352.471 2922.14 347.616 2911.95 347.616H2869.86C2859.67 347.616 2850.1 352.471 2844.08 360.686L2689.94 571.007C2683.92 579.223 2674.34 584.077 2664.15 584.077H2585.61Z" fill="white"/>
<path d="M1838.1 584.077C1820.45 584.077 1806.14 569.765 1806.14 552.111V37.038C1806.14 19.3839 1820.45 5.07239 1838.1 5.07239H2409.05C2426.71 5.07239 2441.02 19.3839 2441.02 37.038V78.3803C2441.02 96.0344 2426.71 110.346 2409.05 110.346H1967.67C1950.02 110.346 1935.71 124.657 1935.71 142.312V206.328C1935.71 223.982 1950.02 238.294 1967.67 238.294H2362.08C2379.74 238.294 2394.05 252.605 2394.05 270.259V311.602C2394.05 329.256 2379.74 343.567 2362.08 343.567H1967.67C1950.02 343.567 1935.71 357.879 1935.71 375.533V446.838C1935.71 464.492 1950.02 478.803 1967.67 478.803H2409.05C2426.71 478.803 2441.02 493.115 2441.02 510.769V552.111C2441.02 569.765 2426.71 584.077 2409.05 584.077H1838.1Z" fill="white"/>
<path d="M1013.78 584.077C996.125 584.077 981.813 569.765 981.813 552.111V37.038C981.813 19.3839 996.125 5.07239 1013.78 5.07239H1099.61C1108.18 5.07239 1116.38 8.50939 1122.39 14.6129L1468.01 365.697C1488.08 386.078 1522.76 371.871 1522.76 343.272V37.0381C1522.76 19.3839 1537.07 5.07239 1554.72 5.07239H1620.36C1638.01 5.07239 1652.32 19.3839 1652.32 37.038V552.111C1652.32 569.765 1638.01 584.077 1620.36 584.077H1534.54C1525.97 584.077 1517.75 580.631 1511.74 574.514L1166.15 222.773C1146.09 202.362 1111.38 216.562 1111.38 245.176V552.111C1111.38 569.765 1097.07 584.077 1079.42 584.077H1013.78Z" fill="white"/>
<path d="M633.369 35.3529C633.369 8.41049 602.083 -6.44699 581.203 10.5795L464.275 105.926C456.83 111.996 452.51 121.093 452.51 130.699V373.173C452.51 398.849 423.768 414.047 402.548 399.591L273.184 311.463C251.964 297.007 223.221 312.205 223.221 337.881V450.906C223.221 460.986 227.976 470.476 236.051 476.511L444 631.918C449.525 636.048 456.238 638.279 463.135 638.279H601.404C619.058 638.279 633.369 623.967 633.369 606.313V35.3529Z" fill="white"/>
<path d="M0.724609 603.902C0.724609 630.844 32.0108 645.702 52.8912 628.675L169.819 533.329C177.263 527.258 181.583 518.162 181.583 508.556V266.082C181.583 240.405 210.326 225.208 231.546 239.664L360.91 327.792C382.13 342.248 410.873 327.05 410.873 301.374V188.349C410.873 178.268 406.118 168.778 398.043 162.744L190.094 7.33603C184.569 3.20681 177.856 0.975594 170.958 0.975594H32.6902C15.0361 0.975594 0.724609 15.2871 0.724609 32.9412V603.902Z" fill="white"/>
<path fill-rule="evenodd" clip-rule="evenodd" d="M696.412 66.8578C712.3 66.8578 725.18 53.9776 725.18 38.089C725.18 22.2004 712.3 9.32013 696.412 9.32013C680.523 9.32013 667.643 22.2004 667.643 38.089C667.643 53.9776 680.523 66.8578 696.412 66.8578ZM696.412 71.1056C714.646 71.1056 729.428 56.3235 729.428 38.089C729.428 19.8544 714.646 5.07239 696.412 5.07239C678.177 5.07239 663.395 19.8544 663.395 38.089C663.395 56.3235 678.177 71.1056 696.412 71.1056Z" fill="white"/>
<path d="M711.15 27.1556H715.549V48.3944H711.423V34.3161L705.082 44.6017H703.716L697.345 34.3161V48.3944H693.249V27.1556H697.618L704.384 38.0784L711.15 27.1556Z" fill="white"/>
<path d="M690.461 27.1556V30.9786H685.363V48.3944H681.237V30.9786H676.14V27.1556H690.461Z" fill="white"/>
</svg>
